<svg height="512" viewBox="0 0 256 256" width="512" xmlns="http://www.w3.org/2000/svg"><path d="m141.635 210.8h-28.142a2.5 2.5 0 1 1 0-5h28.142a2.5 2.5 0 0 1 0 5z" fill="#ebe7f2"/><g fill="#a58bc9"><path d="m153.625 145.784h-49a2.5 2.5 0 0 1 -2.5-2.5v-21a2.5 2.5 0 0 1 2.5-2.5h49a2.5 2.5 0 0 1 2.5 2.5v21a2.5 2.5 0 0 1 -2.5 2.5zm-46.5-5h44v-16h-44z"/><path d="m211.8 145.784h-49a2.5 2.5 0 0 1 -2.5-2.5v-21a2.5 2.5 0 0 1 2.5-2.5h49a2.5 2.5 0 0 1 2.5 2.5v21a2.5 2.5 0 0 1 -2.5 2.5zm-46.5-5h44v-16h-44z"/><path d="m44.917 124.333h-12.5a2.5 2.5 0 0 1 -2.5-2.5v-12.5a2.5 2.5 0 0 1 2.5-2.5h12.5a2.5 2.5 0 0 1 2.5 2.5v12.5a2.5 2.5 0 0 1 -2.5 2.5zm-10-5h7.5v-7.5h-7.5z"/><path d="m91.667 118.083h-35.25a2.5 2.5 0 0 1 0-5h35.25a2.5 2.5 0 0 1 0 5z"/><path d="m44.917 147.083h-12.5a2.5 2.5 0 0 1 -2.5-2.5v-12.5a2.5 2.5 0 0 1 2.5-2.5h12.5a2.5 2.5 0 0 1 2.5 2.5v12.5a2.5 2.5 0 0 1 -2.5 2.5zm-10-5h7.5v-7.5h-7.5z"/><path d="m91.667 140.833h-35.25a2.5 2.5 0 0 1 0-5h35.25a2.5 2.5 0 0 1 0 5z"/><path d="m204.345 85.929h-34.095a2.5 2.5 0 0 1 -2.5-2.5v-34.1a2.5 2.5 0 0 1 2.5-2.5h34.1a2.5 2.5 0 0 1 2.5 2.5v34.1a2.5 2.5 0 0 1 -2.505 2.5zm-31.595-5h29.1v-29.1h-29.1z"/><path d="m54.333 74.986h-24a2.5 2.5 0 0 1 0-5h24a2.5 2.5 0 0 1 0 5z"/><path d="m54.333 85.929h-24a2.5 2.5 0 0 1 0-5h24a2.5 2.5 0 0 1 0 5z"/><path d="m54.333 96.871h-24a2.5 2.5 0 0 1 0-5h24a2.5 2.5 0 1 1 0 5z"/><path d="m95.285 184.458a14.854 14.854 0 1 1 14.854-14.858 14.871 14.871 0 0 1 -14.854 14.858zm0-24.708a9.854 9.854 0 1 0 9.854 9.854 9.865 9.865 0 0 0 -9.854-9.854z"/><path d="m160.715 184.458a14.854 14.854 0 1 1 14.855-14.858 14.871 14.871 0 0 1 -14.855 14.858zm0-24.708a9.854 9.854 0 1 0 9.855 9.854 9.865 9.865 0 0 0 -9.855-9.854z"/></g><path d="m122.65 110.133a2.5 2.5 0 0 0 3.5-.519l16.214-21.876 6.948 10.162a2.5 2.5 0 1 0 4.126-2.822l-8.931-13.062a2.5 2.5 0 0 0 -4.072-.078l-8.06 10.874-7.382-10.8a2.5 2.5 0 0 0 -4.072-.078l-18.3 24.7a2.5 2.5 0 1 0 4.016 2.978l16.215-21.876 6.377 9.326-7.095 9.572a2.5 2.5 0 0 0 .516 3.499z" fill="#846f75"/><path d="m68.7 108.083a2.5 2.5 0 0 0 2.5-2.5v-66.529a6.228 6.228 0 0 1 6.221-6.221h101.156a6.228 6.228 0 0 1 6.221 6.221 2.5 2.5 0 0 0 5 0 11.234 11.234 0 0 0 -11.221-11.221h-101.154a11.234 11.234 0 0 0 -11.223 11.221v66.529a2.5 2.5 0 0 0 2.5 2.5z" fill="#846f75"/><path d="m187.3 152.083a2.5 2.5 0 0 0 -2.5 2.5v34.575h-113.6v-40.825a2.5 2.5 0 0 0 -5 0v68.613a11.234 11.234 0 0 0 11.221 11.221h101.156a11.234 11.234 0 0 0 11.223-11.221v-62.363a2.5 2.5 0 0 0 -2.5-2.5zm-8.721 71.084h-101.156a6.228 6.228 0 0 1 -6.221-6.221v-22.788h113.598v22.788a6.228 6.228 0 0 1 -6.223 6.221z" fill="#846f75"/><path d="m187.3 90.929a2.5 2.5 0 0 0 -2.5 2.5v18.855a2.5 2.5 0 0 0 5 0v-18.855a2.5 2.5 0 0 0 -2.5-2.5z" fill="#846f75"/><path d="m190.833 66.256 4.69-4.691a2.5 2.5 0 0 0 -3.535-3.535l-4.69 4.691-4.691-4.691a2.5 2.5 0 1 0 -3.535 3.535l4.69 4.691-4.69 4.691a2.5 2.5 0 0 0 3.535 3.535l4.691-4.691 4.69 4.691a2.5 2.5 0 0 0 3.535-3.535z" fill="#846f75"/><path d="m129.485 72.714a7.121 7.121 0 1 0 -7.121 7.121 7.129 7.129 0 0 0 7.121-7.121zm-9.242 0a2.121 2.121 0 1 1 2.121 2.121 2.124 2.124 0 0 1 -2.121-2.121z" fill="#846f75"/><path d="m93.517 165.777-4.036 4.035a2.5 2.5 0 0 0 3.536 3.536l2.268-2.267 2.267 2.267a2.5 2.5 0 0 0 3.535-3.535l-4.035-4.036a2.5 2.5 0 0 0 -3.535 0z" fill="#846f75"/><path d="m162.983 165.86-2.268 2.268-2.267-2.268a2.5 2.5 0 0 0 -3.536 3.536l4.035 4.035a2.5 2.5 0 0 0 3.536 0l4.036-4.035a2.5 2.5 0 1 0 -3.536-3.536z" fill="#846f75"/><path d="m151.375 110.625h-46.75a2.5 2.5 0 0 1 -2.5-2.5v-46.75a2.5 2.5 0 0 1 2.5-2.5h46.75a2.5 2.5 0 0 1 2.5 2.5v46.75a2.5 2.5 0 0 1 -2.5 2.5zm-44.25-5h41.75v-41.75h-41.75z" fill="#a58bc9"/></svg>