<svg height="512" viewBox="0 0 256 256" width="512" xmlns="http://www.w3.org/2000/svg"><path d="m82.689 154.67h-22.6a2.5 2.5 0 0 1 0-5h22.6a2.5 2.5 0 0 1 0 5z" fill="#65c1d6"/><path d="m122.194 154.67h-22.6a2.5 2.5 0 0 1 0-5h22.6a2.5 2.5 0 0 1 0 5z" fill="#65c1d6"/><path d="m161.7 154.67h-22.6a2.5 2.5 0 0 1 0-5h22.6a2.5 2.5 0 0 1 0 5z" fill="#65c1d6"/><path d="m161.7 141.323h-101.611a2.5 2.5 0 0 1 -2.5-2.5v-42.2a2.5 2.5 0 0 1 2.5-2.5h105.744a2.5 2.5 0 0 1 0 5h-103.244v37.2h99.111a2.5 2.5 0 0 1 0 5z" fill="#65c1d6"/><path d="m221.892 196.117a2.5 2.5 0 0 1 -2.5-2.5v-20.874h-45.117v20.874a2.5 2.5 0 0 1 -5 0v-23.374a2.5 2.5 0 0 1 2.5-2.5h50.117a2.5 2.5 0 0 1 2.5 2.5v23.374a2.5 2.5 0 0 1 -2.5 2.5z" fill="#65c1d6"/><path d="m200.364 88.8h-151.728a2.5 2.5 0 0 1 0-5h151.728a2.5 2.5 0 0 1 0 5z" fill="#ebe7f2"/><path d="m233 122.809h-70.776a2.5 2.5 0 0 1 0-5h70.776a2.5 2.5 0 0 1 0 5z" fill="#ebe7f2"/><path d="m34.036 168a2.5 2.5 0 0 0 2.5-2.5v-108.58h175.928v29.38a2.5 2.5 0 1 0 5 0v-31.88a2.5 2.5 0 0 0 -2.5-2.5h-180.928a2.5 2.5 0 0 0 -2.5 2.5v111.08a2.5 2.5 0 0 0 2.5 2.5z" fill="#846f75"/><path d="m151.367 163h-100.231v-91.766h146.728v15.066a2.5 2.5 0 0 0 5 0v-17.566a2.5 2.5 0 0 0 -2.5-2.5h-151.728a2.5 2.5 0 0 0 -2.5 2.5v96.766a2.5 2.5 0 0 0 2.5 2.5h102.731a2.5 2.5 0 1 0 0-5z" fill="#846f75"/><path d="m24.016 182.311h127.351a2.5 2.5 0 0 0 0-5h-127.351a10.516 10.516 0 1 0 0 21.032h127.351a2.5 2.5 0 0 0 0-5h-127.351a5.516 5.516 0 1 1 0-11.032z" fill="#846f75"/><path d="m227.757 94.128h-60.814a7.752 7.752 0 0 0 -7.743 7.743v106.949a7.751 7.751 0 0 0 7.743 7.743h60.814a7.751 7.751 0 0 0 7.743-7.743v-106.949a7.752 7.752 0 0 0 -7.743-7.743zm-60.814 5h60.814a2.745 2.745 0 0 1 2.743 2.743v89.246h-66.3v-89.246a2.746 2.746 0 0 1 2.743-2.743zm60.814 112.435h-60.814a2.746 2.746 0 0 1 -2.743-2.743v-12.7h66.3v12.7a2.745 2.745 0 0 1 -2.743 2.743z" fill="#846f75"/><path d="m205.547 206.124h-16.919a2.5 2.5 0 0 1 0-5h16.919a2.5 2.5 0 0 1 0 5z" fill="#ebe7f2"/><g fill="#65c1d6"><path d="m221.892 161.238h-50.117a2.5 2.5 0 0 1 -2.5-2.5v-27.665a2.5 2.5 0 0 1 2.5-2.5h50.117a2.5 2.5 0 0 1 2.5 2.5v27.665a2.5 2.5 0 0 1 -2.5 2.5zm-47.617-5h45.117v-22.665h-45.117z"/><path d="m221.892 107.653h-8.784a2.5 2.5 0 0 1 0-5h8.784a2.5 2.5 0 0 1 0 5z"/><path d="m221.892 114.715h-8.784a2.5 2.5 0 0 1 0-5h8.784a2.5 2.5 0 0 1 0 5z"/><path d="m176.6 116.247a7.322 7.322 0 1 1 7.322-7.322 7.331 7.331 0 0 1 -7.322 7.322zm0-9.644a2.322 2.322 0 1 0 2.322 2.322 2.325 2.325 0 0 0 -2.322-2.325z"/><path d="m74.211 80.271h-14.122a2.5 2.5 0 0 1 0-5h14.122a2.5 2.5 0 0 1 0 5z"/><path d="m129.839 80.271h-6.028a2.5 2.5 0 0 1 0-5h6.028a2.5 2.5 0 0 1 0 5z"/><path d="m148.956 80.271h-6.028a2.5 2.5 0 0 1 0-5h6.028a2.5 2.5 0 0 1 0 5z"/><path d="m168.072 80.271h-6.028a2.5 2.5 0 0 1 0-5h6.028a2.5 2.5 0 0 1 0 5z"/><path d="m187.189 80.271h-6.028a2.5 2.5 0 0 1 0-5h6.028a2.5 2.5 0 0 1 0 5z"/></g></svg>