<svg height="512" viewBox="0 0 256 256" width="512" xmlns="http://www.w3.org/2000/svg"><path d="m111.137 230.865a2.5 2.5 0 0 1 -2.379-3.27l9.065-28a2.482 2.482 0 0 1 .611-1l93.866-93.861a2.5 2.5 0 0 1 3.535 0l18.935 18.934a2.5 2.5 0 0 1 0 3.535l-93.87 93.865a2.493 2.493 0 0 1 -1 .611l-28 9.064a2.493 2.493 0 0 1 -.763.122zm11.263-29.157-7.373 22.771 22.77-7.372 91.673-91.671-15.4-15.4z" fill="#ed9abc"/><g fill="#846f75"><path d="m192.017 48.3h-131.869a12.163 12.163 0 0 0 -12.148 12.151v131.868a12.163 12.163 0 0 0 12.148 12.149h47.763a2.5 2.5 0 1 0 0-5h-47.763a7.157 7.157 0 0 1 -7.148-7.149v-131.868a7.157 7.157 0 0 1 7.148-7.151h131.869a7.157 7.157 0 0 1 7.149 7.149v46.288a2.5 2.5 0 0 0 5 0v-46.286a12.163 12.163 0 0 0 -12.149-12.151z"/><path d="m201.666 166.614a2.5 2.5 0 0 0 -2.5 2.5v23.2a7.157 7.157 0 0 1 -7.149 7.149h-24.155a2.5 2.5 0 0 0 0 5h24.155a12.163 12.163 0 0 0 12.149-12.149v-23.2a2.5 2.5 0 0 0 -2.5-2.5z"/><path d="m174.271 82.737a2.5 2.5 0 0 0 0-5h-19.512a2.5 2.5 0 0 0 0 5z"/><path d="m143.364 77.737h-65.47a2.5 2.5 0 0 0 0 5h65.47a2.5 2.5 0 0 0 0-5z"/><path d="m122.253 111a2.5 2.5 0 0 0 2.5 2.5h49.518a2.5 2.5 0 0 0 0-5h-49.518a2.5 2.5 0 0 0 -2.5 2.5z"/><path d="m77.894 113.5h35.465a2.5 2.5 0 0 0 0-5h-35.465a2.5 2.5 0 0 0 0 5z"/><path d="m169.033 141.767a2.5 2.5 0 0 0 -2.5-2.5h-18.8a2.5 2.5 0 0 0 0 5h18.8a2.5 2.5 0 0 0 2.5-2.5z"/><path d="m136.338 139.267h-58.444a2.5 2.5 0 0 0 0 5h58.444a2.5 2.5 0 1 0 0-5z"/><path d="m135.92 170.032h-58.026a2.5 2.5 0 0 0 0 5h58.026a2.5 2.5 0 0 0 0-5z"/></g></svg>