<svg xmlns="http://www.w3.org/2000/svg" xmlns:xlink="http://www.w3.org/1999/xlink" version="1.1" viewBox="0 0 172 172"><g fill="none" fill-rule="nonzero" stroke="none" stroke-width="1" stroke-linecap="butt" stroke-linejoin="miter" stroke-miterlimit="10" stroke-dasharray="" stroke-dashoffset="0" font-family="none" font-weight="none" font-size="none" text-anchor="none" style="mix-blend-mode: normal"><path d="M0,172v-172h172v172z" fill="none"/><g><path d="M86,1.34375c-46.62812,0 -84.65625,38.02812 -84.65625,84.65625c0,46.62813 38.02812,84.65625 84.65625,84.65625c46.62813,0 84.65625,-38.02812 84.65625,-84.65625c0,-46.62812 -38.02812,-84.65625 -84.65625,-84.65625zM86,162.59375c-42.19375,0 -76.59375,-34.4 -76.59375,-76.59375c0,-42.19375 34.4,-76.59375 76.59375,-76.59375c42.19375,0 76.59375,34.4 76.59375,76.59375c0,42.19375 -34.4,76.59375 -76.59375,76.59375z" fill="#18bc9c"/><path d="M72.42812,115.69688c0.80625,0.80625 1.88125,1.20938 2.82188,1.20938c0.94062,0 2.01563,-0.40313 2.82188,-1.20938l26.875,-26.875c1.6125,-1.6125 1.6125,-4.16563 0,-5.64375l-26.875,-26.875c-1.6125,-1.6125 -4.16563,-1.6125 -5.64375,0c-1.6125,1.6125 -1.6125,4.16563 0,5.64375l24.05313,24.05313l-24.05313,24.05313c-1.6125,1.47812 -1.6125,4.16562 0,5.64375z" fill="#444b54"/></g></g></svg>