<svg viewBox="0 0 240 240" xmlns="http://www.w3.org/2000/svg">
<path fill-rule="evenodd" clip-rule="evenodd" d="M156.211 110.725H163.365L163.336 110.736C165.514 110.852 166.901 112.116 166.901 114.022C166.901 115.911 165.415 117.232 163.199 117.31H156.211V110.725ZM156.321 122.952L161.603 122.953L168.063 134.3H175.458L168.481 122.046C171.564 120.565 173.541 117.446 173.541 114.011C173.541 109.08 169.533 105.068 164.608 105.068H149.684V134.3H156.321V122.952ZM145.255 128.432H129.512V122.196H142.666V116.494H129.512V110.645H144.515V105.068H122.697V134.3H145.255V128.432ZM72.0738 110.725H79.2274L79.1985 110.736C81.3761 110.852 82.7636 112.116 82.7636 114.022C82.7636 115.911 81.2777 117.232 79.062 117.31H72.0738V110.725ZM72.1841 122.952L77.4661 122.953L83.926 134.3H91.3202L84.3432 122.046C87.4265 120.565 89.4033 117.446 89.4033 114.011C89.4033 109.08 85.3961 105.068 80.4705 105.068H65.5468V134.3H72.1841V122.952ZM60.8922 122.707V105.068H54.0767V122.251C54.0767 126.413 51.9126 128.799 48.1399 128.799H48.1371C44.364 128.799 42.1999 126.413 42.1999 122.251V105.068H35.3843V122.707C35.3843 130.404 40.1516 135 48.1371 135H48.1399C56.125 135 60.8922 130.404 60.8922 122.707ZM22.1414 128.848H14.6913V122.018H22.1414C24.602 122.018 25.7085 123.978 25.7085 125.371C25.7085 127.098 24.4834 128.848 22.1414 128.848ZM14.6913 110.523H20.1452C21.8057 110.523 23.2082 111.906 23.2082 113.544C23.2082 115.238 21.8628 116.565 20.1452 116.565H14.6913V110.523ZM26.5027 118.112C28.5863 116.815 29.8329 114.567 29.8329 112.119C29.8329 108.251 26.7051 105.1 22.8483 105.068L8 105.069V134.302L24.1202 134.302C28.6617 134.288 32.3522 130.584 32.3522 126.034C32.3522 122.804 30.4353 119.454 26.5027 118.112ZM108.66 128.848H101.21V122.018H108.66C111.121 122.018 112.227 123.978 112.227 125.371C112.227 127.098 111.002 128.848 108.66 128.848ZM101.21 110.523H106.664C108.324 110.523 109.727 111.906 109.727 113.544C109.727 115.238 108.381 116.565 106.664 116.565H101.21V110.523ZM113.021 118.112C115.105 116.815 116.351 114.567 116.351 112.119C116.351 108.251 113.224 105.1 109.367 105.068L94.5186 105.069V134.302L110.639 134.302C115.18 134.287 118.871 130.584 118.871 126.034C118.871 122.804 116.954 119.454 113.021 118.112ZM192.171 117.31H185.183V110.725H192.337L192.308 110.735C194.485 110.852 195.873 112.116 195.873 114.022C195.873 115.911 194.387 117.232 192.171 117.31ZM202.513 114.01C202.513 109.08 198.505 105.068 193.58 105.068H178.656V134.299H185.293V122.952L190.575 122.953L197.035 134.3H204.429L197.452 122.046C200.536 120.565 202.513 117.446 202.513 114.01ZM224.489 105L217.793 115.052L211.124 105H202.613L214.198 122.322V134.234H221.387V122.322L233 105L224.489 105Z"></path>
</svg>