<svg viewBox="0 0 240 240" xmlns="http://www.w3.org/2000/svg">
<path d="M15.429 50.2775C11.2556 50.1499 7.84101 49.0015 5.1852 46.8322C4.67931 46.449 3.41462 45.173 3.03522 44.6626C1.89701 43.2589 1.26469 41.9829 0.758811 40.4516C-0.758804 35.8578 -1.07785e-05 29.8602 3.03522 23.3522C5.56459 17.7375 9.4851 12.1227 16.3144 4.46625C17.3261 3.3178 20.3614 0 20.3614 0C20.3614 0 20.2348 0.255215 19.9819 0.638037C18.2114 3.57301 16.6938 7.14601 15.8085 10.2086C14.5438 15.0577 14.6703 19.2688 16.3144 22.5866C17.4526 24.8835 19.3496 26.7976 21.4995 27.8185C25.2936 29.7326 30.8581 29.8602 37.6873 28.3289C38.1934 28.2013 61.3371 21.9485 89.2865 14.5473C117.236 7.01841 140 0.893249 140 0.893249C140 0.893249 75.2485 28.8393 41.6081 43.3865C36.2963 45.6834 34.9052 46.3214 32.3758 47.2146C25.7995 49.3843 19.9819 50.5327 15.429 50.2775Z" transform="translate(55 97)"></path>
</svg>